<?xml version="1.0" encoding="utf-8"?>
<!-- Generator: Adobe Illustrator 16.0.4, SVG Export Plug-In . SVG Version: 6.00 Build 0)  -->
<!DOCTYPE svg PUBLIC "-//W3C//DTD SVG 1.1//EN" "http://www.w3.org/Graphics/SVG/1.1/DTD/svg11.dtd">
<svg version="1.1" id="Layer_1" xmlns="http://www.w3.org/2000/svg" xmlns:xlink="http://www.w3.org/1999/xlink" x="0px" y="0px"
	 width="151.454px" height="64.485px" viewBox="0 0 151.454 64.485" enable-background="new 0 0 151.454 64.485"
	 xml:space="preserve">
<rect x="130.056" y="5.388" fill="#FFFFFF" width="9.779" height="4.542"/>
<path d="M142.932,23.36c-0.127-0.45-0.135-1.137-0.073-1.6c0.199-1.496-0.194-4.021-0.306-4.688c-0.016-0.093-0.016-0.242,0-0.334
	c0.557-3.509-2.06-4.359-2.754-4.521c-0.092-0.021-0.232-0.071-0.313-0.118l-2.282-1.308c-0.081-0.045-0.155-0.158-0.168-0.252
	l-0.455-1.101c-0.011-0.093,0.336-0.263,0.387-0.342c0.32-0.504,0.555-0.793,0.671-1.491c0.154-0.163,0.297-0.55,0.355-1.014
	c0.081-0.633-0.024-1.167-0.234-1.194c-0.032-0.004-0.064,0.005-0.098,0.024C137.509,4.123,137.295,2,135.004,2
	c-2.499,0-2.533,2.156-2.689,3.422c-0.033-0.019-0.066-0.028-0.098-0.024c-0.211,0.027-0.317,0.562-0.236,1.194
	c0.059,0.464,0.201,0.851,0.357,1.014c0.114,0.697,0.349,0.987,0.67,1.491c0.05,0.079,0.527,0.229,0.516,0.323l-0.585,1.119
	c-0.012,0.094-0.087,0.207-0.168,0.252l-2.281,1.308c-0.082,0.047-0.222,0.096-0.312,0.118c-0.696,0.162-3.312,1.012-2.755,4.521
	c0.015,0.092,0.015,0.241-0.001,0.334c-0.112,0.668-0.505,3.192-0.306,4.688c0.062,0.463,0.003,1.122-0.147,1.565
	c-0.25,0.734-0.443,2.027,0.092,3.967l0.267,2.892c0,0-0.026,0.176,0,0.466h0.002c0.006,0.484,0.023,1.99-0.002,2.233
	c-0.028,0.291,0.524,0.784,0.524,1.075c0,0,1.309,1.113,1.6,1.211c0,0,0.232-0.338,0-0.541c0,0,0.087-0.233-0.059-0.35
	c0,0-0.595-0.436-0.952-1.047c0,0,0.095-0.611,0-0.872l0.169-0.194l0.26,1.009c0,0,0.302,0.524,0.519-0.029
	c0,0-0.024-0.813-0.198-1.192c0,0,0.147-1.205-0.432-1.656c-0.004-0.021-0.008-0.041-0.011-0.062l-0.008-0.095
	c-0.001-0.04-0.003-0.08,0.002-0.114c0.102-0.783,0.365-2.751,0.599-3.914c0,0,0.305-0.963,0.126-2.214
	c-0.066-0.463-0.067-1.187,0.066-1.634c0.216-0.723,0.503-1.766,0.574-2.408c0,0,1.003,4.307,0.295,5.547
	c-0.281,0.491-0.525,2.533-0.585,5.248c-0.086,3.876,0.205,9.123,1.308,13.195c0.122,0.451,0.146,1.184,0.144,1.65
	c-0.001,0.099,0.004,0.226,0.013,0.375c0.062,0.982,0.331,3.014,0.714,5.041c0.109,0.576,0.18,1.18,0.333,1.746
	c0.116,0.426,0.141,0.781,0.1,1.242c-0.017,0.176-0.059,0.346-0.111,0.514c-0.077,0.244-0.137,0.443-0.285,0.654
	c-0.031,0.046-0.506,0.341-1.068,0.459c-0.415,0.088-0.831,0.037-1.068,0.036c-0.336-0.001-0.805,0.196-0.822,0.229
	c0.016-0.484-0.104,0.525,0.203,1.031c0.082-0.017,0.258,0.141,0.619,0.143c0.648,0.003,1.236-0.011,1.817-0.162
	c0.856-0.223,0.585-0.123,1.272-0.448c0.322-0.199,0.627-0.504,0.729-0.751c0.144-0.349,0.188-0.473,0.219-0.562
	c0.083-0.24,0.173-0.276,0.263-0.447c0.097-0.186-0.022-0.36-0.08-0.537c-0.036-0.111-0.003-0.236,0.002-0.352
	c0-0.006,0.186-4.85,0.186-4.85s0.063-1.582-0.044-2.986c-0.024-0.309-0.057-0.609-0.1-0.883c-0.073-0.462-0.151-1.195-0.093-1.66
	c0.2-1.578,0.432-5.108,0.583-7.965c0.062-1.179,0.111-2.242,0.138-3.007h0.405c-0.001,0.755,0.035,1.772,0.095,2.896
	c0.153,2.888,0.459,6.474,0.672,8.078c0.062,0.463-0.015,1.196-0.091,1.658c-0.046,0.273-0.088,0.574-0.115,0.883
	c-0.108,1.404-0.052,2.986-0.052,2.986s0.186,4.844,0.186,4.85c0.005,0.115,0.038,0.24,0.002,0.352
	c-0.058,0.177-0.178,0.352-0.08,0.537c0.09,0.171,0.22,0.26,0.186,0.48c-0.014,0.094-0.027,0.289-0.07,0.371
	c-0.67,1.307,0.395,1.35,0.395,1.35c0.646,0.992,1.163,0.753,1.163,0.753c0.083-0.001,0.178-0.007,0.282-0.015
	s0.191-0.104,0.173-0.207c-0.032-0.186-0.123-0.418-0.362-0.556c-0.034-0.021-0.046-0.063-0.026-0.098
	c0.02-0.035,0.063-0.048,0.099-0.027c0.293,0.168,0.398,0.448,0.435,0.665c0.019,0.104,0.104,0.182,0.209,0.169
	s0.211-0.108,0.212-0.215c0.005-0.156-0.029-0.354-0.184-0.505c-0.029-0.028-0.03-0.073-0.002-0.102
	c0.028-0.029,0.073-0.029,0.102-0.002c0.18,0.174,0.229,0.401,0.229,0.586c0.001,0.106,0.046,0.184,0.12,0.172
	c0.074-0.01,0.152-0.104,0.156-0.209c0.002-0.156-0.032-0.353-0.187-0.502c-0.028-0.028-0.029-0.074-0.002-0.103
	c0.028-0.028,0.074-0.028,0.102-0.001c0.179,0.172,0.228,0.396,0.23,0.58c0.001,0.107,0.046,0.184,0.121,0.171
	c0.074-0.013,0.153-0.106,0.154-0.213c0.001-0.154-0.035-0.347-0.186-0.492c-0.029-0.028-0.029-0.073-0.002-0.103
	c0.028-0.028,0.074-0.028,0.103,0c0.174,0.168,0.225,0.387,0.229,0.568c0.003,0.106,0.052,0.182,0.13,0.168s0.143-0.111,0.143-0.218
	v-0.343c-0.02-0.113-0.262-0.256-0.345-0.309c-0.303-0.197-0.719-0.275-0.97-0.541c-0.214-0.226-0.296-0.549-0.473-0.803
	c-0.148-0.211-0.208-0.41-0.285-0.654c-0.053-0.168-0.095-0.338-0.111-0.514c-0.041-0.461-0.017-0.816,0.1-1.242
	c0.153-0.566,0.224-1.17,0.333-1.746c0.383-2.027,0.624-4.059,0.685-5.041c0.001-0.149,0.003-0.276,0-0.375
	c-0.013-0.467-0.005-1.199,0.119-1.65c1.136-4.139,1.437-9.35,1.354-13.195c-0.058-2.718-0.308-4.754-0.59-5.248
	c-0.708-1.24,0.294-5.547,0.294-5.547c0.072,0.643,0.359,1.686,0.575,2.408c0.134,0.447,0.114,1.166,0.043,1.628
	c-0.186,1.209,0.15,2.22,0.15,2.22c0.231,1.163,0.497,3.131,0.598,3.914c0.012,0.088,0.001,0.196-0.021,0.303
	c-0.537,0.471-0.398,1.625-0.398,1.625c-0.037,0.08-0.067,0.18-0.092,0.287c-0.091,0.398-0.106,0.905-0.106,0.905
	c0.216,0.554,0.519,0.029,0.519,0.029l0.26-1.009l0.169,0.194c-0.095,0.261,0,0.872,0,0.872c-0.357,0.611-0.952,1.047-0.952,1.047
	c-0.146,0.116-0.059,0.35-0.059,0.35c-0.232,0.203,0,0.541,0,0.541c0.291-0.098,1.6-1.211,1.6-1.211
	c0-0.291,0.552-0.784,0.523-1.075c-0.024-0.243-0.008-1.749-0.001-2.233h0.001c0.027-0.29,0-0.466,0-0.466l0.238-2.892
	C143.348,25.498,143.152,24.148,142.932,23.36z"/>
<path d="M30.8,54.112c-0.011-0.01-0.022-0.032-0.044-0.043c-0.305-0.325-0.83-1.673-1.073-2.729
	c-0.254-1.098-1.143-3.773-2.255-5.25c-1.189-1.563-2.656-1.906-4.458-2.096c-1.803-0.179-3.599,1.168-4.249,1.485
	c-0.65,0.317-1.768,0.377-2.539,0.26c-0.377-0.052-0.673-0.172-0.864-0.303c0.268-0.503,0.278-0.965-0.004-1.099
	c-0.286-0.133-0.778,0.117-1.174,0.574c0.003-0.305-0.024-0.678-0.005-0.787c0.032-0.186,0.508-0.568-0.101-0.893
	c-0.598-0.324-1.051,0.516-1.234,0.832c-0.183,0.316-0.159,0.958-0.365,1.199c-0.693,0.209-1.789,0.474-2.287,0.607
	c-0.542,0.164-1.873,1.356-2.296,1.619c-0.422,0.274-1.071,0.766-1.071,0.93l0.001,0.043c0.023,0.479,0.371,0.772,0.513,0.805
	c0,0.021,0.011,0.043,0.011,0.076c0.055,0.228,0.262,0.424,0.48,0.607l-0.625,1.473l0.022,0.011l0.635-1.461
	c0.055,0.054,0.12,0.097,0.174,0.151l-0.426,2.082l0.033,0.01l0.426-2.07c0.055,0.043,0.12,0.087,0.174,0.119l-0.156,1.721
	l0.032,0.012l0.157-1.722c0.043,0.021,0.087,0.032,0.119,0.043l0.017,1.677H8.4L8.384,50.33c0.054,0.01,0.098,0.021,0.141,0.032
	l0.179,1.284h0.032l-0.178-1.284c0.108,0.021,0.206,0.021,0.293,0.011l0.657,1.619l0.033-0.012l-0.658-1.609h0.044
	c0.076,0.152,0.272,0.25,0.533,0.303l0.666,1.088l0.032-0.022l-0.644-1.054c0.217,0.043,0.489,0.062,0.771,0.072l0.599,0.662
	l0.022-0.021l-0.578-0.641c0.174,0.011,0.348,0.011,0.532,0.01c0.879,0.008,1.303,0.201,1.804,0.461
	c0.402,0.206,0.926,0.923,1.318,1.411c0.295,0.554,0.656,1.315,0.615,1.892c-0.03,0.578-0.354,1.025-0.516,1.385
	c0.033-0.021,0.054-0.033,0.087-0.043c-0.076,0.219-0.096,0.457-0.226,0.512c-0.141,0.056-0.542,0.318-0.639,0.318
	c-0.098,0-0.468-0.086-0.619,0.002c-0.163,0.088-0.694,0.221-0.639,0.362c0.055,0.13,0.304,0.118,0.401,0.031
	c-0.053,0.075-0.313,0.382-0.128,0.446s0.672-0.33,0.824-0.297c-0.13,0.088-0.357,0.395-0.194,0.438
	c0.043,0.01,0.109,0.009,0.195-0.012c-0.303,0.152-0.965,0.274-0.975,0.416c-0.01,0.175,0.9-0.145,1.236-0.243
	c-0.194,0.12-0.758,0.396-0.823,0.471c-0.054,0.088,0.088,0.163,0.337,0.162c0.25-0.001,0.748-0.362,0.911-0.417
	c-0.119,0.284-0.259,0.502,0.001,0.512c0.261,0.01,0.714-0.798,0.79-0.873c0.075-0.089,0.13,0.118,0.238,0.074
	c0.098-0.033,0.4-0.589,0.595-0.786c0.097-0.032,0.26-0.142,0.876-0.635c0.606-0.492,2.774-1.382,3.121-1.383
	c0.347-0.003,0.631,0.313,1.261,0.583c0.631,0.27,1.835,0.199,2.204,0.188s0.642,0.237,0.74,0.367
	c-0.011-0.076,0.086-0.25,0.162-0.207c0.043,0.021,0.12,0.119,0.207,0.26c-0.021,0.176-0.097,0.327-0.248,0.351
	c-0.293,0.044-1.031,0.091-1.454,0.168c-0.423,0.089-0.771-0.029-1.096,0.059c-0.434,0.11-1.235,0.517-1.072,0.745
	c0.055,0.053,0.109,0.086,0.163,0.107c-0.01,0.043-0.01,0.076,0.012,0.109c0.109,0.217,0.813-0.134,0.954-0.178
	c0.141-0.044,0.13,0.064,0.38,0.02c-0.141,0.045-0.335,0.394-0.194,0.48c0.142,0.098,0.586-0.165,0.759-0.264
	c0.174-0.088,0.391,0.009,0.521-0.002c0.119-0.012,1.465-0.125,1.812-0.182c0.347-0.066,0.899-0.395,1.236-0.439
	c0.347-0.045,0.356-0.524,0.301-0.785c0.184-0.055,0.499,0.02,0.499,0.02s0.261,0.162,0.327,0.205
	c-0.022-0.098,0.27-0.338,0.27-0.338s0.283,0.206,0.272,0.336c0.152-0.109,0.28-0.556,0.247-0.676
	c0.109,0.012,0.371,0.314,0.382,0.512c0.152-0.176,0.258-0.621,0.258-0.621s0.142,0.205,0.175,0.281l0.259-0.393
	c0,0,0.197,0.391,0.187,0.664c0.043-0.055,0.378-0.557,0.225-0.797c-0.141-0.236,0.731,0.078,0.99,0.082
	c0.076-0.506,0.382-0.984,0.918-1.269C30.969,54.252,30.871,54.166,30.8,54.112"/>
<path d="M113.751,55.605c-2.764,0-4.719-2.479-6.777-5.131c2.059-2.653,4.014-5.133,6.777-5.133c2.762,0,4.719,2.479,6.776,5.133
	C118.469,53.128,116.516,55.605,113.751,55.605 M97.852,55.557c-3.049-0.123-5.17-2.543-7.16-5.082
	c1.99-2.541,4.111-4.961,7.16-5.084c3.048,0.123,5.169,2.543,7.158,5.084C103.021,53.014,100.899,55.434,97.852,55.557
	 M81.952,55.605c-2.763,0-4.72-2.479-6.778-5.131c2.059-2.653,4.016-5.133,6.778-5.133c2.761,0,4.718,2.479,6.776,5.133
	C86.67,53.127,84.713,55.605,81.952,55.605 M66.051,55.557c-3.047-0.123-5.168-2.543-7.158-5.082
	c1.99-2.541,4.111-4.961,7.158-5.084c3.049,0.123,5.17,2.543,7.16,5.084C71.222,53.014,69.101,55.434,66.051,55.557 M50.152,55.605
	c-2.762,0-4.718-2.479-6.776-5.131c2.058-2.653,4.014-5.133,6.776-5.133c2.763,0,4.72,2.479,6.777,5.133
	C54.872,53.127,52.915,55.605,50.152,55.605 M129.893,45.385v-1.403c-3.796,0-6.202,2.5-8.382,5.233
	c-2.097-2.685-4.335-5.274-7.76-5.274c-3.424,0-5.664,2.59-7.762,5.274c-2.085-2.615-4.378-5.015-7.896-5.218v-0.016
	c-0.082,0-0.162,0.004-0.242,0.006c-0.081-0.002-0.161-0.006-0.243-0.006v0.016c-3.518,0.203-5.811,2.603-7.896,5.218
	c-2.098-2.685-4.337-5.274-7.761-5.274c-3.425,0-5.664,2.59-7.763,5.274c-2.083-2.615-4.377-5.015-7.896-5.218v-0.016
	c-0.081,0-0.161,0.004-0.243,0.006c-0.08-0.002-0.16-0.006-0.242-0.006v0.016c-3.518,0.203-5.811,2.603-7.896,5.218
	c-2.098-2.685-4.337-5.274-7.762-5.274c-3.424,0-5.664,2.59-7.761,5.274c-2.179-2.734-4.584-5.233-8.381-5.233v1.403
	c3.18,0,5.36,2.482,7.401,5.09c-1.714,2.188-3.529,4.285-5.95,4.902c-1.205,0.061-2.917-0.089-4.708-0.888
	c-2.688-1.219-3.269-1.894-4.771-2.483c-1.053-0.412-2.615-0.945-3.52-1.311c-0.39-0.143-0.663-0.271-0.732-0.352
	c-0.048-0.056-0.15-0.129-0.271-0.209c-0.484,0.979-1.257,1.78-2.211,2.438c0.206-0.038,0.379-0.061,0.504-0.062
	c0.038,0.013,0.083,0.002,0.11,0.002c0.641,0.09,2.564,0.043,6.45,2.218c3.795,2.129,6.705,2.433,8.122,2.22
	c0.92-0.047,1.756-0.242,2.527-0.553c0.342-0.116,0.663-0.256,0.962-0.445c0.038-0.023,0.079-0.055,0.12-0.086
	c1.689-0.984,3.06-2.516,4.349-4.133c2.097,2.686,4.337,5.275,7.761,5.275c3.425,0,5.664-2.59,7.762-5.275
	c2.084,2.615,4.377,5.015,7.896,5.219v0.016c0.082,0,0.162-0.004,0.242-0.006c0.082,0.002,0.162,0.006,0.243,0.006v-0.016
	c3.519-0.204,5.812-2.604,7.896-5.219c2.099,2.686,4.338,5.275,7.763,5.275c3.424,0,5.663-2.59,7.761-5.275
	c2.084,2.615,4.378,5.015,7.896,5.219v0.016c0.082,0,0.162-0.004,0.243-0.006c0.08,0.002,0.16,0.006,0.242,0.006v-0.016
	c3.518-0.204,5.811-2.604,7.896-5.219c2.098,2.686,4.338,5.275,7.762,5.275c3.425,0,5.663-2.59,7.76-5.275
	c2.18,2.734,4.586,5.234,8.382,5.234v-1.403c-3.18,0-5.358-2.483-7.4-5.089C124.534,47.867,126.713,45.385,129.893,45.385"/>
<text transform="matrix(1 0 0 1 8.1372 33.0547)"><tspan x="0" y="0" font-family="'Museo-700'" font-size="21.4818" letter-spacing="-1">T</tspan><tspan x="12.417" y="0" font-family="'Museo-700'" font-size="21.4818">ewhey</tspan></text>
<text transform="matrix(1 0 0 1 88.0498 33.0547)" font-family="'Museo-300'" font-size="21.4818">Lab</text>
<rect fill="none" width="151.454" height="64.485"/>
</svg>
